<?xml version="1.0" encoding="utf-8"?>
<!-- Generator: Adobe Illustrator 21.0.2, SVG Export Plug-In . SVG Version: 6.00 Build 0)  -->
<svg version="1.1" id="Layer_1" xmlns="http://www.w3.org/2000/svg" xmlns:xlink="http://www.w3.org/1999/xlink" x="0px" y="0px"
	 viewBox="0 0 19.3 25" width="19" height="25" style="enable-background:new 0 0 19.3 25;" xml:space="preserve">
<style type="text/css">
	.st0{fill:#00A8FF;}
</style>
<path id="XMLID_68_" class="st0" d="M19,11.9l-7.2-11c-0.4-0.5-1-0.9-1.6-0.9C9.6,0,9,0.3,8.6,0.8l-8.2,11c-0.7,0.9-0.5,2.1,0.4,2.8
	c0.9,0.7,2.1,0.5,2.8-0.4l4.1-5.5V23c0,1.1,0.9,2,2,2s2-0.9,2-2V8l4,6.1c0.4,0.6,1,0.9,1.7,0.9c0.4,0,0.8-0.1,1.1-0.3
	C19.4,14.1,19.6,12.8,19,11.9z"/>
</svg>
