<?xml version="1.0" encoding="utf-8"?>
<!-- Generator: Adobe Illustrator 21.0.2, SVG Export Plug-In . SVG Version: 6.00 Build 0)  -->
<svg version="1.1" id="Слой_1" xmlns="http://www.w3.org/2000/svg" xmlns:xlink="http://www.w3.org/1999/xlink" x="0px" y="0px"
	 viewBox="0 0 30.6 30.9" width="31" height="31" style="enable-background:new 0 0 30.6 30.9;" xml:space="preserve">
<style type="text/css">
	.st0{fill:#FFFFFF;}
</style>
<g id="XMLID_35_">
	<g id="XMLID_11_">
		<path id="XMLID_27_" class="st0" d="M15.2,12.2L15.2,12.2L15.2,12.2L21.1,8c-0.8-0.6-1.6-1.2-2.5-1.5c0.3-0.7,0.5-1.7,0-3
			c-0.1-0.4-0.6-0.6-0.9-0.4c-0.4,0.1-0.6,0.6-0.4,0.9c0.4,0.9,0.1,1.6-0.1,2c-0.6-0.1-1.3-0.2-1.9-0.2c-0.6,0-1.2,0.1-1.8,0.2
			c-0.2-0.4-0.4-1.1,0-2c0.1-0.4,0-0.8-0.4-0.9c-0.4-0.1-0.8,0-0.9,0.4c-0.5,1.3-0.3,2.3,0,3C11.1,6.8,10.3,7.3,9.5,8L15.2,12.2z"/>
		<path id="XMLID_28_" class="st0" d="M28.8,15.1c-0.3-0.4-0.8-0.6-1.3-0.5l-2.6,0.6c0,0,0,0,0,0c-0.2-1.2-0.5-2.3-1-3.3
			c0,0,0,0,0,0l4-3.4c0.4-0.4,0.6-1,0.4-1.5c-1.9-4.8-4.4-6.7-4.5-6.8c-0.6-0.4-1.4-0.3-1.8,0.3c-0.4,0.6-0.3,1.4,0.2,1.8
			c0,0,1.8,1.4,3.3,4.8c0,0,0,0,0,0l-3.1,2.4l-6.6,4.8c-0.2,0.1-0.3,0.2-0.6,0.2c-0.3,0-0.4-0.1-0.6-0.2L8.1,9.6L5.1,7.1
			c0,0,0,0,0,0c1.5-3.3,3.3-4.7,3.3-4.8c0.6-0.4,0.7-1.2,0.3-1.8C8.2-0.1,7.4-0.2,6.8,0.3C6.7,0.3,4.2,2.3,2.3,7
			C2.1,7.5,2.2,8.2,2.7,8.5l4,3.4c0,0,0,0,0,0c-0.5,1-0.8,2.1-1,3.3c0,0,0,0,0,0l-2.6-0.6c-0.5-0.1-1,0.1-1.3,0.5
			c-0.2,0.2-1.7,2.4-1.8,4.7C0,20.4,0.5,21,1.2,21c0,0,0.1,0,0.1,0c0.7,0,1.3-0.5,1.3-1.2c0-0.8,0.5-1.8,0.8-2.4c0,0,0,0,0,0
			l2.2,0.5c0,0,0,0,0,0c0.1,1.2,0.3,2.4,0.7,3.5c0,0,0,0,0,0l-2.6,2.2c-0.4,0.4-0.6,1-0.4,1.5c1.2,2.8,2.9,4.6,4.2,5.5
			c0.2,0.2,0.5,0.3,0.8,0.3c0.3,0,0.7-0.1,0.9-0.4c0.5-0.6,0.4-1.5-0.2-2c-0.9-0.7-2-1.8-2.9-3.6c0,0,0,0,0,0l1.4-1.2c0,0,0,0,0,0
			c1.6,2.4,4.1,4,6.8,4.3c0,0,0,0,0,0v-8.7c0-0.5,0.2-0.9,0.8-1c0,0,0.1,0,0.1,0c0.5,0.1,0.8,0.5,0.8,1V28c0,0,0,0,0,0
			c3-0.3,5.3-1.9,6.9-4.3c0,0,0,0,0,0l1.4,1.2c0,0,0,0,0,0c-0.9,1.8-2,2.9-2.9,3.6c-0.6,0.5-0.7,1.4-0.2,2c0.3,0.3,0.6,0.4,0.9,0.4
			c0.3,0,0.6-0.1,0.8-0.3c1.3-1,3-2.7,4.2-5.5c0.2-0.5,0.1-1.1-0.4-1.5l-2.6-2.2c0,0,0,0,0,0c0.4-1.1,0.7-2.2,0.7-3.5c0,0,0,0,0,0
			l2.2-0.5c0,0,0,0,0,0C27.5,18,28,19,28,19.8c0,0.7,0.6,1.2,1.3,1.2c0,0,0.1,0,0.1,0c0.7,0,1.2-0.6,1.2-1.3
			C30.5,17.5,29,15.3,28.8,15.1z"/>
	</g>
</g>
</svg>
