<?xml version="1.0" encoding="utf-8"?>
<!-- Generator: Adobe Illustrator 21.0.2, SVG Export Plug-In . SVG Version: 6.00 Build 0)  -->
<svg version="1.1" id="Layer_2" xmlns="http://www.w3.org/2000/svg" xmlns:xlink="http://www.w3.org/1999/xlink" x="0px" y="0px"
	 viewBox="0 0 19.8 17.5" width="20" height="18" style="enable-background:new 0 0 19.8 17.5;" xml:space="preserve">
<style type="text/css">
	.st0{fill:none;stroke:#FFFFFF;stroke-miterlimit:10;}
	.st1{fill:#00A8FF;stroke:#FFFFFF;stroke-miterlimit:10;}
	.st2{fill:#FFFFFF;}
</style>
<g id="XMLID_22_">
	<path id="XMLID_1_" class="st0" d="M17.3,17H2.6c-1.1,0-2.1-0.9-2.1-2.1V4.7c0-1.1,0.9-2.1,2.1-2.1h14.7c1.1,0,2.1,0.9,2.1,2.1
		v10.2C19.3,16,18.4,17,17.3,17z"/>
	<rect id="XMLID_15_" x="4.2" y="0.5" class="st1" width="2.1" height="3.2"/>
	<rect id="XMLID_20_" x="13.9" y="0.5" class="st1" width="2.1" height="3.2"/>
	<line id="XMLID_21_" class="st0" x1="1.2" y1="6.3" x2="19.2" y2="6.3"/>
	<rect id="XMLID_19_" x="3.3" y="8.5" class="st2" width="2.3" height="2.3"/>
	<rect id="XMLID_23_" x="3.3" y="12.6" class="st2" width="2.3" height="2.3"/>
	<rect id="XMLID_25_" x="6.8" y="8.5" class="st2" width="2.3" height="2.3"/>
	<rect id="XMLID_24_" x="6.8" y="12.6" class="st2" width="2.3" height="2.3"/>
	<rect id="XMLID_27_" x="10.4" y="8.5" class="st2" width="2.3" height="2.3"/>
	<rect id="XMLID_26_" x="10.4" y="12.6" class="st2" width="2.3" height="2.3"/>
	<rect id="XMLID_53_" x="14" y="8.5" class="st2" width="2.3" height="2.3"/>
	<rect id="XMLID_37_" x="14" y="12.6" class="st2" width="2.3" height="2.3"/>
</g>
</svg>
