<?xml version="1.0" encoding="utf-8"?>
<!-- Generator: Adobe Illustrator 21.0.2, SVG Export Plug-In . SVG Version: 6.00 Build 0)  -->
<svg version="1.1" id="Layer_1" xmlns="http://www.w3.org/2000/svg" xmlns:xlink="http://www.w3.org/1999/xlink" x="0px" y="0px"
	 viewBox="0 0 19.5 19.5" width="20" height="20" style="enable-background:new 0 0 19.5 19.5;" xml:space="preserve">
<style type="text/css">
	.st0{fill:#FFFFFF;}
</style>
<path id="XMLID_1_" class="st0" d="M19,2.8L2.8,19c-0.6,0.6-1.7,0.6-2.3,0l0,0c-0.6-0.6-0.6-1.7,0-2.3L16.7,0.5
	c0.6-0.6,1.7-0.6,2.3,0l0,0C19.7,1.1,19.7,2.1,19,2.8z"/>
<path id="XMLID_3_" class="st0" d="M2.8,0.5L19,16.7c0.6,0.6,0.6,1.7,0,2.3l0,0c-0.6,0.6-1.7,0.6-2.3,0L0.5,2.8
	c-0.6-0.6-0.6-1.7,0-2.3l0,0C1.1-0.2,2.1-0.2,2.8,0.5z"/>
</svg>
