<?xml version="1.0" encoding="utf-8"?>
<!-- Generator: Adobe Illustrator 21.0.2, SVG Export Plug-In . SVG Version: 6.00 Build 0)  -->
<svg version="1.1" id="Capa_1" xmlns="http://www.w3.org/2000/svg" xmlns:xlink="http://www.w3.org/1999/xlink" x="0px" y="0px"
	 viewBox="-643.5 184 519 425.9" width="519" height="426" style="enable-background:new -643.5 184 519 425.9;" xml:space="preserve">
<style type="text/css">
	.st0{fill:#FFFFFF;stroke:#FFFFFF;stroke-width:7;stroke-miterlimit:10;}
</style>
<path class="st0" d="M-139.6,338.8h-337.5c0-20.1-7.4-39.4-20.7-54.3c-15.4-17.3-37.6-27.2-60.7-27.2c-44.9,0-81.5,36.6-81.5,81.5
	c0,23.1,9.9,45.3,27.1,60.7c15,13.4,34.2,20.8,54.3,20.8h95.1c18.1,0,35.2,7.1,48,19.9c2.2,2.2,5.1,3.4,8.2,3.4h186.2
	c51.3,0,93.1-41.8,93.1-93.1C-128,344-133.2,338.8-139.6,338.8z M-221.1,420.3h-181.6c-16.7-15-38.1-23.3-60.8-23.3h-95.1
	c-14.3,0-28.1-5.3-38.8-14.8c-12.3-11-19.4-26.8-19.4-43.4c0-32.1,26.1-58.2,58.2-58.2c16.5,0,32.3,7.1,43.4,19.4
	c9.6,10.7,14.8,24.4,14.8,38.8c0,3-0.3,6.2-0.9,9.7c-0.6,3.4,0.4,6.8,2.6,9.4c2.2,2.6,5.5,4.1,8.9,4.1h337.5
	C-157.8,395.1-186.6,420.3-221.1,420.3z"/>
<path class="st0" d="M-376.3,312.2l82.2-81c24.6-24.3,63.2-26.8,90.7-7.6l-73.1,72.1c-4.6,4.5-4.6,11.9-0.1,16.5
	c2.3,2.3,5.3,3.5,8.3,3.5c2.9,0,5.9-1.1,8.2-3.4l82.2-81c2.2-2.2,3.5-5.2,3.5-8.3s-1.2-6.1-3.5-8.3c-36.5-36-95.9-36-132.5,0
	l-82.2,81c-4.6,4.5-4.6,11.9-0.1,16.5C-388.3,316.6-380.9,316.7-376.3,312.2z"/>
<path class="st0" d="M-418.6,468.1c-3.1-3-6.5-5.9-10.5-8.7c-5.3-3.7-12.5-2.4-16.2,2.8s-2.4,12.5,2.9,16.2c3,2.1,5.4,4.1,7.6,6.2
	c10.2,10.1,16.3,23.4,17.1,37.6c0.9,16.4-5.3,32.4-17.1,44c-22.9,22.6-60.3,22.6-83.2,0c-11.8-11.6-18-27.6-17.1-44
	c0.8-14.2,6.9-27.5,17.1-37.6l25.9-25.6c4.6-4.5,4.6-11.9,0.1-16.5c-4.5-4.6-11.9-4.6-16.5-0.1l-25.9,25.6
	c-14.3,14.1-22.8,32.9-24,52.9c-1.3,23,7.4,45.6,23.9,61.9c16,15.8,37,23.6,57.9,23.6c21,0,42-7.9,57.9-23.6
	c16.5-16.3,25.3-38.8,24-61.9C-395.7,501-404.2,482.2-418.6,468.1z"/>
</svg>
