<?xml version="1.0" encoding="utf-8"?>
<!-- Generator: Adobe Illustrator 21.0.2, SVG Export Plug-In . SVG Version: 6.00 Build 0)  -->
<svg version="1.1" id="Capa_1" xmlns="http://www.w3.org/2000/svg" xmlns:xlink="http://www.w3.org/1999/xlink" x="0px" y="0px"
	 viewBox="-687 174.5 512 455" width="512" height="455" style="enable-background:new -687 174.5 512 455;" xml:space="preserve">
<style type="text/css">
	.st0{fill:#FFFFFF;}
</style>
<path class="st0" d="M-175,253.3c-23.7-33.8-70.7-42.7-104.5-19l-173.8,121.7l-63.2-44.2c23.5-40.6,12.5-93.2-26.7-120.6
	c-41.4-29-98.4-18.9-127.3,22.5c-29,41.4-18.9,98.4,22.5,127.3c28.4,19.9,64.1,21.4,93.1,7l77.4,54.2l-77.4,54.2
	c-29-14.4-64.7-12.9-93.1,7c-41.4,29-51.4,86-22.5,127.3c29,41.4,86,51.4,127.3,22.5c39.2-27.4,50.2-80,26.7-120.6l63.2-44.2
	l173.8,121.7c33.8,23.7,80.8,14.8,104.5-19L-387.4,402L-175,253.3z M-595.4,313.5c-26.2,0-47.4-21.2-47.4-47.4s21.2-47.4,47.4-47.4
	c26.2,0,47.4,21.2,47.4,47.4S-569.2,313.5-595.4,313.5z M-595.4,585.3c-26.2,0-47.4-21.2-47.4-47.4c0-26.2,21.2-47.4,47.4-47.4
	c26.2,0,47.4,21.2,47.4,47.4C-548,564-569.2,585.3-595.4,585.3z"/>
</svg>
