<?xml version="1.0" encoding="utf-8"?>
<!-- Generator: Adobe Illustrator 21.0.2, SVG Export Plug-In . SVG Version: 6.00 Build 0)  -->
<svg version="1.1" id="Layer_2" xmlns="http://www.w3.org/2000/svg" xmlns:xlink="http://www.w3.org/1999/xlink" x="0px" y="0px"
	 viewBox="0 0 46.1 32.3"  width="46" height="32" style="enable-background:new 0 0 46.1 32.3;" xml:space="preserve">
<style type="text/css">
	.st0{fill:none;stroke:#00A8FF;stroke-linecap:round;stroke-miterlimit:10;}
	.st1{fill:#FFFFFF;stroke:#00A8FF;stroke-miterlimit:10;}
	.st2{fill:none;stroke:#00A8FF;stroke-miterlimit:10;}
	.st3{fill:none;stroke:#00A8FF;stroke-linejoin:round;stroke-miterlimit:10;}
</style>
<path id="XMLID_103_" class="st0" d="M36.2,26v1.9c0,2.2-1.8,4-4,4H4.5c-2.2,0-4-1.8-4-4V8.5c0-2.2,1.8-4,4-4h27.8c2.2,0,4,1.8,4,4
	v6.6"/>
<rect id="XMLID_114_" x="7.6" y="0.5" class="st1" width="4" height="6.1"/>
<rect id="XMLID_113_" x="26" y="0.5" class="st1" width="4" height="6.1"/>
<line id="XMLID_112_" class="st2" x1="0.3" y1="12.3" x2="36.3" y2="12.3"/>
<rect id="XMLID_111_" x="5.7" y="15.6" class="st3" width="4.3" height="4.3"/>
<rect id="XMLID_110_" x="5.7" y="23.4" class="st3" width="4.3" height="4.3"/>
<rect id="XMLID_109_" x="12.5" y="15.6" class="st3" width="4.3" height="4.3"/>
<rect id="XMLID_108_" x="12.5" y="23.4" class="st3" width="4.3" height="4.3"/>
<rect id="XMLID_106_" x="19.3" y="23.4" class="st3" width="4.3" height="4.3"/>
<g id="XMLID_91_">
	<polygon id="XMLID_104_" class="st3" points="31.2,27.9 22.5,19.4 26,15.8 31.1,20.7 41.9,9.4 45.6,12.9 	"/>
</g>
</svg>
