<?xml version="1.0" encoding="utf-8"?>
<!-- Generator: Adobe Illustrator 21.0.2, SVG Export Plug-In . SVG Version: 6.00 Build 0)  -->
<svg version="1.1" id="Layer_2" xmlns="http://www.w3.org/2000/svg" xmlns:xlink="http://www.w3.org/1999/xlink" x="0px" y="0px"
	 viewBox="0 0 36.8 32.3" width="37" height="32" style="enable-background:new 0 0 36.8 32.3;" xml:space="preserve">
<style type="text/css">
	.st0{fill:none;stroke:#00A8FF;stroke-miterlimit:10;}
	.st1{fill:#FFFFFF;stroke:#00A8FF;stroke-miterlimit:10;}
</style>
<g id="XMLID_55_">
	<path id="XMLID_67_" class="st0" d="M34.2,31.8H2.6c-1.1,0-2.1-0.9-2.1-2.1v-23c0-1.1,0.9-2.1,2.1-2.1h31.6c1.1,0,2.1,0.9,2.1,2.1
		v23C36.3,30.8,35.3,31.8,34.2,31.8z"/>
	<rect id="XMLID_66_" x="7.6" y="0.5" class="st1" width="4" height="6.1"/>
	<rect id="XMLID_65_" x="26" y="0.5" class="st1" width="4" height="6.1"/>
	<line id="XMLID_64_" class="st0" x1="0.2" y1="10.9" x2="36.2" y2="10.9"/>
	<rect id="XMLID_63_" x="5.7" y="15.6" class="st0" width="4.3" height="4.3"/>
	<rect id="XMLID_62_" x="5.7" y="23.4" class="st0" width="4.3" height="4.3"/>
	<rect id="XMLID_61_" x="12.5" y="15.6" class="st0" width="4.3" height="4.3"/>
	<rect id="XMLID_60_" x="12.5" y="23.4" class="st0" width="4.3" height="4.3"/>
	<rect id="XMLID_59_" x="19.3" y="15.6" class="st0" width="4.3" height="4.3"/>
	<rect id="XMLID_58_" x="19.3" y="23.4" class="st0" width="4.3" height="4.3"/>
	<rect id="XMLID_57_" x="26.1" y="15.6" class="st0" width="4.3" height="4.3"/>
	<rect id="XMLID_56_" x="26.1" y="23.4" class="st0" width="4.3" height="4.3"/>
</g>
</svg>
