<?xml version="1.0" encoding="utf-8"?>
<!-- Generator: Adobe Illustrator 21.0.2, SVG Export Plug-In . SVG Version: 6.00 Build 0)  -->
<svg version="1.1" id="Layer_2" xmlns="http://www.w3.org/2000/svg" xmlns:xlink="http://www.w3.org/1999/xlink" x="0px" y="0px"
	 viewBox="0 0 35.8 36" width="36" height="36" style="enable-background:new 0 0 35.8 36;" xml:space="preserve">
<style type="text/css">
	.st0{fill:none;stroke:#00A8FF;stroke-linecap:round;stroke-linejoin:round;stroke-miterlimit:10;}
	.st1{fill:none;stroke:#00A8FF;stroke-linejoin:round;stroke-miterlimit:10;}
</style>
<polyline id="XMLID_102_" class="st0" points="27.5,12 27.5,5.8 20.5,0.5 4.5,0.5 4.5,31.5 27.5,31.5 27.5,26 "/>
<g id="XMLID_100_">
	<path id="XMLID_101_" class="st0" d="M25.1,25.5l-3.3,1.1l0.2-3.1L32.3,9.3c0.3-0.5,1-0.6,1.4-0.2l1.1,0.8c0.5,0.3,0.6,1,0.2,1.4
		L25.1,25.5z"/>
</g>
<line id="XMLID_99_" class="st0" x1="8" y1="6.5" x2="22" y2="6.5"/>
<line id="XMLID_98_" class="st0" x1="8" y1="12.5" x2="22" y2="12.5"/>
<line id="XMLID_97_" class="st0" x1="8" y1="18.5" x2="21" y2="18.5"/>
<line id="XMLID_95_" class="st0" x1="8" y1="24.5" x2="19" y2="24.5"/>
<polyline id="XMLID_81_" class="st1" points="0.5,7 0.5,35.5 22,35.5 "/>
</svg>
