<?xml version="1.0" encoding="utf-8"?>
<!-- Generator: Adobe Illustrator 21.0.2, SVG Export Plug-In . SVG Version: 6.00 Build 0)  -->
<svg version="1.1" id="Layer_2" xmlns="http://www.w3.org/2000/svg" xmlns:xlink="http://www.w3.org/1999/xlink" x="0px" y="0px"
	 viewBox="0 0 40.2 33.9" width="40" height="34" style="enable-background:new 0 0 40.2 33.9;" xml:space="preserve">
<style type="text/css">
	.st0{fill:none;stroke:#00A8FF;stroke-linecap:round;stroke-linejoin:round;stroke-miterlimit:10;}
	.st1{fill:none;stroke:#00A8FF;stroke-miterlimit:10;}
</style>
<g id="XMLID_75_">
	<polyline id="XMLID_78_" class="st0" points="16,10.5 10,13.8 16,16.8 	"/>
	<polyline id="XMLID_77_" class="st0" points="24.5,10.5 30.5,13.8 24.5,16.8 	"/>
	<line id="XMLID_76_" class="st0" x1="21.6" y1="9.5" x2="19.2" y2="18.3"/>
</g>
<path id="XMLID_122_" class="st1" d="M33,24H7.2c-2.1,0-3.8-1.7-3.8-3.8V6.6c0-2.1,1.7-3.8,3.8-3.8H33c2.1,0,3.8,1.7,3.8,3.8v13.6
	C36.8,22.3,35.1,24,33,24z"/>
<path id="XMLID_54_" class="st1" d="M33.9,26.3H6.3c-3.2,0-5.8-2.6-5.8-5.8V6.3c0-3.2,2.6-5.8,5.8-5.8h27.6c3.2,0,5.8,2.6,5.8,5.8
	v14.2C39.7,23.7,37.1,26.3,33.9,26.3z"/>
<path id="XMLID_125_" class="st1" d="M29.1,30.7h-18c-0.2,0-0.4,0.2-0.4,0.4v2c0,0.2,0.2,0.4,0.4,0.4h18c0.2,0,0.4-0.2,0.4-0.4v-2
	C29.5,30.8,29.3,30.7,29.1,30.7z"/>
<rect id="XMLID_126_" x="16.7" y="26.3" class="st1" width="6.7" height="4.4"/>
</svg>
