<?xml version="1.0" encoding="utf-8"?>
<!-- Generator: Adobe Illustrator 21.0.2, SVG Export Plug-In . SVG Version: 6.00 Build 0)  -->
<svg version="1.1" id="Layer_1" xmlns="http://www.w3.org/2000/svg" xmlns:xlink="http://www.w3.org/1999/xlink" x="0px" y="0px"
	 viewBox="0 0 569 182" width="569" height="182" style="enable-background:new 0 0 569 182;" xml:space="preserve">
<style type="text/css">
	.st0{fill:url(#XMLID_3_);}
	.st1{filter:url(#Adobe_OpacityMaskFilter);}
	.st2{opacity:0.37;mask:url(#XMLID_5_);fill:url(#XMLID_7_);}
	.st3{opacity:0.67;fill:#FFFFFF;}
	.st4{fill:#00A8FF;}
	.st5{fill:#0094E0;}
	.st6{fill:#8CD8FF;}
	.st7{fill:#ED145B;}
</style>
<radialGradient id="XMLID_3_" cx="178.5" cy="-34.5633" r="381.9373" gradientUnits="userSpaceOnUse">
	<stop  offset="0.1667" style="stop-color:#B3E5FF"/>
	<stop  offset="0.4355" style="stop-color:#A1DFFF"/>
	<stop  offset="1" style="stop-color:#00A8FF"/>
</radialGradient>
<path id="XMLID_9_" class="st0" d="M569,181.9V13.7C569,6.1,563.2,0,555.6,0h-542C6.1,0,0,6.1,0,13.7V182
	C49,182,473.5,181.9,569,181.9z"/>
<defs>
	<filter id="Adobe_OpacityMaskFilter" filterUnits="userSpaceOnUse" x="121" y="0" width="448" height="182">
		<feFlood  style="flood-color:white;flood-opacity:1" result="back"/>
		<feBlend  in="SourceGraphic" in2="back" mode="normal"/>
	</filter>
</defs>
<mask maskUnits="userSpaceOnUse" x="121" y="0" width="448" height="182" id="XMLID_5_">
	<g id="XMLID_125_" class="st1">
	</g>
</mask>
<linearGradient id="XMLID_7_" gradientUnits="userSpaceOnUse" x1="435.0299" y1="176.1646" x2="246.6548" y2="5.7673">
	<stop  offset="0" style="stop-color:#FFFFFF"/>
	<stop  offset="1" style="stop-color:#A1DFFF"/>
</linearGradient>
<path id="XMLID_42_" class="st2" d="M555.6,0H411.8L121,182c0,0,381.5-0.3,448-0.3v-168C569,6.1,563.2,0,555.6,0z"/>
<path id="XMLID_57_" class="st3" d="M345.3,105.1c-0.5-9.4-6.3-17.6-7.5-19.1c-1.7-2.2-4.3-3.5-7.1-3.5c-0.7,0-1.4,0.1-2,0.2
	l-5.5,1.3c-0.5-2.2-1.2-4.3-2-6.4l1.1-0.9L334,67c3-2.5,4-6.5,2.6-10c-7.3-18.4-17.1-26.1-18.1-26.9c-1.5-1.2-3.4-1.8-5.3-1.8
	c-2.8,0-5.4,1.3-7.1,3.5c-2.9,3.9-2.1,9.4,1.7,12.3c0.2,0.1,5,4.2,9.7,13.5l-5.7,4.5l-3.3-2.8c-2.2-1.8-4.5-3.4-6.9-4.7
	c0,0,0.2-3,0.3-4c0-2.1-0.5-4.3-1.4-6.4c-1-2.5-3.5-4.3-6.3-4.3c-0.8,0-1.7,0.2-2.4,0.5c-3.5,1.4-5.2,5.2-3.9,8.7
	c0.2,0.5,0.3,0.9,0.4,1.4c-1.3-0.1-2.6-0.2-3.8-0.3l-0.1,0l-0.1,0c-1.2,0-2.4,0.1-3.6,0.2c0.1-0.4,0.2-0.9,0.4-1.4
	c1.3-3.4-0.4-7.3-3.8-8.7c-0.8-0.3-1.6-0.5-2.5-0.5h0c-2.8,0-5.2,1.6-6.2,4.2c-1.3,3.2-1.5,6.5-0.7,10.2c-2.3,1.3-4.6,2.9-7,5
	l-3.5,3l-5.9-4.7c4.7-9.2,9.5-13.2,9.8-13.5c3.8-2.9,4.6-8.4,1.7-12.3c-1.7-2.2-4.3-3.5-7.1-3.5c-1.9,0-3.8,0.6-5.3,1.8
	c-1.1,0.8-10.8,8.5-18.1,26.9c-1.4,3.6-0.4,7.6,2.6,10l11.7,9.7l1.1,0.9c-0.8,2.1-1.4,4.2-2,6.4l-5.5-1.3c-0.7-0.2-1.3-0.2-2-0.2
	c-2.8,0-5.4,1.3-7.1,3.5c-1.2,1.6-7,9.8-7.5,19.1c-0.1,2.4,0.7,4.7,2.3,6.5c1.6,1.8,3.7,2.8,6.1,2.9c0.2,0,0.3,0,0.5,0
	c4.7,0,8.6-3.7,8.8-8.4c0.1-1.3,0.5-2.9,1.3-4.7l0.5,0.1l1.7,0.4c0.4,2.9,1,5.6,1.8,8.4l-7.6,6.5c-2.9,2.5-3.9,6.6-2.4,10.2
	c4.7,11.3,11.7,18.3,16.7,22.2c1.5,1.2,3.5,1.9,5.4,1.9c2.8,0,5.3-1.3,7-3.5c2.9-3.8,2.1-9.5-1.7-12.5c-1.9-1.5-4.5-3.7-6.8-6.6
	c6.3,6.4,14.8,11.2,23.2,12c1.7,0.2,3.7,0.2,7,0c9.1-0.5,16.9-5,23.3-11.8c-2.2,3-4.4,5.1-6.1,6.4c-3,2.4-4.2,6.4-3.1,9.9
	c1.2,3.7,4.6,6.1,8.5,6.1c2,0,3.9-0.7,5.4-1.9c5-3.9,12-11,16.7-22.2c1.5-3.6,0.5-7.6-2.4-10.1l-7.6-6.5c0.8-2.7,1.5-5.5,1.8-8.4
	l1.7-0.4l0.5-0.1c0.8,1.8,1.2,3.4,1.3,4.7c0.2,4.7,4.1,8.4,8.8,8.4c0.2,0,0.3,0,0.5,0c2.3-0.1,4.5-1.1,6.1-2.9
	C344.6,109.8,345.4,107.5,345.3,105.1z"/>
<g id="XMLID_35_">
	<g id="XMLID_11_">
		<path id="XMLID_27_" class="st4" d="M284.2,77.9L284.2,77.9h0.3l21.3-15.5c-2.8-2.4-5.9-4.3-9.2-5.7c1.1-2.5,1.8-6.3,0-11
			c-0.5-1.4-2.1-2.1-3.5-1.5c-1.4,0.5-2.1,2.1-1.6,3.5c1.4,3.5,0.4,6-0.2,7.4c-2.2-0.5-4.9-0.8-7-0.8c-2.2,0-4.6,0.3-6.8,0.8
			c-0.7-1.4-1.5-4-0.2-7.4c0.5-1.4-0.2-2.9-1.5-3.5c-1.4-0.5-3,0.1-3.5,1.5c-1.9,4.7-1.1,8.6,0,11c-3.3,1.4-6.4,3.3-9.2,5.7
			L284.2,77.9z"/>
		<path id="XMLID_28_" class="st4" d="M334.6,88.4c-1.2-1.5-3.1-2.3-5-1.8l-9.6,2.2c0,0,0,0,0,0c-0.6-4.4-1.9-8.6-3.6-12.4
			c0,0,0,0,0,0l15-12.5c1.6-1.3,2.2-3.6,1.4-5.5c-7-17.6-16.4-24.8-16.8-25.1c-2.1-1.6-5.2-1.2-6.8,1c-1.6,2.1-1.2,5.1,0.9,6.8
			c0.2,0.1,6.6,5.3,12.2,17.7c0,0,0,0,0,0L311,67.8l-24.4,17.9c-0.6,0.5-1.3,0.7-2.3,0.7c-1.1,0-1.5-0.3-2.2-0.7l-24.3-17.9
			l-11.3-9.1c0,0,0,0,0,0c5.6-12.4,12.1-17.6,12.3-17.7c2.1-1.6,2.5-4.6,0.9-6.8c-1.6-2.1-4.6-2.6-6.8-1c-0.4,0.3-9.8,7.5-16.8,25.1
			c-0.8,1.9-0.2,4.2,1.4,5.5l15,12.5c0,0,0,0,0,0c-1.8,3.8-3,8-3.6,12.4c0,0,0,0,0,0l-9.6-2.2c-1.9-0.4-3.8,0.3-5,1.8
			c-0.6,0.9-6.4,8.8-6.7,17.3c-0.1,2.5,1.9,4.6,4.5,4.8c0.1,0,0.3,0,0.4,0c2.6,0,4.7-2,4.8-4.6c0.2-3.1,1.7-6.6,3.1-9.1c0,0,0,0,0,0
			l8.1,1.9c0,0,0,0,0,0c0.3,4.5,1.3,8.8,2.8,12.8c0,0,0,0,0,0l-9.6,8.2c-1.6,1.4-2.1,3.6-1.3,5.6c4.4,10.5,10.8,17,15.5,20.6
			c0.9,0.7,1.9,1,3,1c1.3,0,2.5-0.5,3.5-1.5c2-2.1,1.6-5.5-0.7-7.3c-3.2-2.5-7.5-6.8-10.9-13.4c0,0,0,0,0,0l5-4.3c0,0,0,0,0,0
			c5.9,8.8,15.1,14.8,25.1,16c0,0,0,0,0,0V104c0-1.8,0.8-3.3,2.8-3.7c0.1,0,0.2,0,0.3,0c2,0.4,2.8,1.9,2.8,3.7v32.4c0,0,0,0,0,0
			c11-1.2,19.6-7.2,25.6-16c0,0,0,0,0,0l5.4,4.3c0,0,0,0,0,0c-3.4,6.6-7.5,10.8-10.8,13.4c-2.3,1.8-2.7,5.3-0.7,7.3
			c0.9,1,2.2,1.5,3.5,1.5c1,0,2.1-0.3,3-1c4.6-3.6,11.1-10.1,15.5-20.6c0.8-2,0.3-4.2-1.3-5.6l-9.6-8.2c0,0,0,0,0,0
			c1.5-4,2.5-8.3,2.8-12.8c0,0,0,0,0,0l8.1-1.9c0,0,0,0,0,0c1.4,2.4,3,5.9,3.1,9.1c0.1,2.6,2.3,4.6,4.8,4.6c0.1,0,0.3,0,0.4,0
			c2.5-0.2,4.5-2.3,4.5-4.8C341,97.1,335.2,89.2,334.6,88.4z"/>
	</g>
	<g id="XMLID_34_">
		<path id="XMLID_14_" class="st5" d="M252.5,76.4c0,0,1.5-4.6,5.2-8.6c0,0-5.9,2.7-8.6,5.8L252.5,76.4z"/>
		<path id="XMLID_15_" class="st5" d="M248.5,98.7c0,0-0.1-5.2,0.3-9.9c0,0-4,6.2-4.9,8.8L248.5,98.7z"/>
		<path id="XMLID_13_" class="st5" d="M251.3,111.6c0,0,3.1,6.8,4.5,8.9l-3.7,3.2C252.2,123.6,251.3,118.7,251.3,111.6z"/>
		<path id="XMLID_17_" class="st5" d="M272.3,56.7c0,0,2.7-1.2,5.1-1.7c0,0-4.3-1-5.9-0.8C271.5,54.2,271.9,56.1,272.3,56.7z"/>
		<path id="XMLID_21_" class="st5" d="M316.4,76.4c0,0-1.5-4.6-5.2-8.6c0,0,5.9,2.7,8.6,5.8L316.4,76.4z"/>
		<path id="XMLID_18_" class="st5" d="M320.4,98.7c0,0,0.1-5.2-0.3-9.9c0,0,4,6.2,4.9,8.8L320.4,98.7z"/>
		<path id="XMLID_16_" class="st5" d="M317.6,111.6c0,0-3.1,6.8-4.5,8.9l3.7,3.2C316.7,123.6,317.6,118.7,317.6,111.6z"/>
		<path id="XMLID_12_" class="st5" d="M296.7,56.7c0,0-2.7-1.2-5.1-1.7c0,0,4.3-1,5.9-0.8C297.5,54.2,297,56.1,296.7,56.7z"/>
	</g>
	<g id="XMLID_19_">
		<g id="XMLID_8_">
			<path id="XMLID_33_" class="st6" d="M274.4,127.2c-0.2,0-0.4-0.1-0.6-0.2c-0.6-0.4-14.8-9.3-17.1-24.8c-0.1-0.6,0.3-1.1,0.9-1.2
				c0.6-0.1,1.1,0.3,1.2,0.9c2.1,14.5,15.9,23.2,16.1,23.3c0.5,0.3,0.7,1,0.3,1.5C275.1,127,274.8,127.2,274.4,127.2z"/>
		</g>
		<g id="XMLID_10_">
			<path id="XMLID_32_" class="st6" d="M265.8,108.3c-0.5,0-0.9-0.3-1-0.8c-0.2-0.6-0.3-1.1-0.4-1.7c-0.1-0.6,0.3-1.1,0.9-1.3
				c0.6-0.1,1.1,0.3,1.3,0.9c0.1,0.5,0.2,1,0.4,1.4c0.2,0.6-0.1,1.2-0.7,1.3C266,108.2,265.9,108.3,265.8,108.3z"/>
		</g>
		<g id="XMLID_6_">
			<path id="XMLID_31_" class="st6" d="M273.9,119.1c-0.2,0-0.4-0.1-0.6-0.2c-0.1-0.1-3.6-2.6-6.3-6.7c-0.3-0.5-0.2-1.2,0.3-1.5
				c0.5-0.3,1.2-0.2,1.5,0.3c2.4,3.7,5.7,6.1,5.7,6.1c0.5,0.3,0.6,1,0.2,1.5C274.6,118.9,274.3,119.1,273.9,119.1z"/>
		</g>
		<g id="XMLID_24_">
			<path id="XMLID_30_" class="st6" d="M294.5,127.2c-0.4,0-0.7-0.2-0.9-0.5c-0.3-0.5-0.2-1.2,0.3-1.5c0.1-0.1,13.9-8.8,16.1-23.3
				c0.1-0.6,0.6-1,1.2-0.9c0.6,0.1,1,0.6,0.9,1.2c-2.3,15.5-16.5,24.4-17.1,24.8C294.9,127.2,294.7,127.2,294.5,127.2z"/>
		</g>
		<g id="XMLID_23_">
			<path id="XMLID_29_" class="st6" d="M303.1,108.3c-0.1,0-0.2,0-0.3,0c-0.6-0.2-0.9-0.8-0.7-1.3c0.1-0.5,0.3-1,0.4-1.4
				c0.1-0.6,0.7-1,1.3-0.9c0.6,0.1,1,0.7,0.9,1.3c-0.1,0.6-0.2,1.1-0.4,1.7C304,108,303.5,108.3,303.1,108.3z"/>
		</g>
		<g id="XMLID_22_">
			<path id="XMLID_26_" class="st6" d="M295,119.1c-0.3,0-0.7-0.2-0.9-0.4c-0.3-0.5-0.2-1.2,0.2-1.5c0,0,3.3-2.4,5.7-6.1
				c0.3-0.5,1-0.6,1.5-0.3c0.5,0.3,0.6,1,0.3,1.5c-2.6,4.1-6.1,6.6-6.3,6.7C295.4,119,295.2,119.1,295,119.1z"/>
		</g>
		<g id="XMLID_20_">
			<path id="XMLID_25_" class="st6" d="M297.5,63.5c-0.2,0-0.3,0-0.5-0.1c-14.2-7.4-24.8-0.3-24.9-0.2c-0.5,0.3-1.2,0.2-1.5-0.3
				c-0.3-0.5-0.2-1.2,0.3-1.5c0.5-0.3,11.8-8,27.1,0.1c0.5,0.3,0.7,0.9,0.5,1.5C298.2,63.3,297.9,63.5,297.5,63.5z"/>
		</g>
	</g>
</g>
<circle id="XMLID_40_" class="st3" cx="364.8" cy="94.2" r="14"/>
<circle id="XMLID_36_" class="st4" cx="364.8" cy="94.2" r="9.8"/>
<circle id="XMLID_41_" class="st3" cx="398.8" cy="94.2" r="14"/>
<circle id="XMLID_39_" class="st4" cx="398.8" cy="94.2" r="9.8"/>
<circle id="XMLID_44_" class="st3" cx="432.8" cy="94.2" r="14"/>
<circle id="XMLID_43_" class="st4" cx="432.8" cy="94.2" r="9.8"/>
<rect id="XMLID_48_" y="182" class="st7" width="569" height="5.3"/>
</svg>
