<?xml version="1.0" encoding="utf-8"?>
<!-- Generator: Adobe Illustrator 21.0.2, SVG Export Plug-In . SVG Version: 6.00 Build 0)  -->
<svg version="1.1" id="Layer_2" xmlns="http://www.w3.org/2000/svg" xmlns:xlink="http://www.w3.org/1999/xlink" x="0px" y="0px"
	 viewBox="0 0 39.9 28.3" width="40" height="28" style="enable-background:new 0 0 39.9 28.3;" xml:space="preserve">
<style type="text/css">
	.st0{fill:none;stroke:#00A8FF;stroke-linejoin:round;stroke-miterlimit:10;}
	.st1{fill:none;stroke:#00A8FF;stroke-linecap:round;stroke-linejoin:round;stroke-miterlimit:10;}
	.st2{fill:none;stroke:#00A8FF;stroke-linecap:round;stroke-miterlimit:10;}
</style>
<path id="XMLID_120_" class="st0" d="M32.3,24.3H4.4c-2.1,0-3.9-1.7-3.9-3.9v-16c0-2.1,1.7-3.9,3.9-3.9h27.9c2.1,0,3.9,1.7,3.9,3.9
	v16C36.2,22.5,34.5,24.3,32.3,24.3z"/>
<path id="XMLID_146_" class="st1" d="M39.4,9.6v10.1c0,4.5-3.6,8.1-8.1,8.1h-22"/>
<g id="XMLID_142_">
	<circle id="XMLID_143_" class="st2" cx="11.3" cy="8.5" r="3.4"/>
	<path id="XMLID_144_" class="st2" d="M10.8,11.9c-3.2,0-5,1.7-5,3.8V19h10v-3.2C15.8,13.7,14,11.9,10.8,11.9z"/>
</g>
<line id="XMLID_140_" class="st2" x1="20.3" y1="7" x2="32.3" y2="7"/>
<line id="XMLID_141_" class="st2" x1="20.3" y1="12" x2="32.3" y2="12"/>
<line id="XMLID_145_" class="st2" x1="20.3" y1="18" x2="32.3" y2="18"/>
</svg>
