<?xml version="1.0" encoding="utf-8"?>
<!-- Generator: Adobe Illustrator 21.0.2, SVG Export Plug-In . SVG Version: 6.00 Build 0)  -->
<svg version="1.1" id="Layer_2" xmlns="http://www.w3.org/2000/svg" xmlns:xlink="http://www.w3.org/1999/xlink" x="0px" y="0px"
	 viewBox="0 0 35 34.1" width="35" height="34" style="enable-background:new 0 0 35 34.1;" xml:space="preserve">
<style type="text/css">
	.st0{fill:none;stroke:#00A8FF;stroke-miterlimit:10;}
	.st1{fill:#00A8FF;}
</style>
<g id="XMLID_74_">
	<path id="XMLID_80_" class="st0" d="M19.5,33.5l-0.7-4.6c5.1-0.8,9.2-4.9,9.8-10l4.6,0.6C32.3,26.7,26.7,32.5,19.5,33.5z"/>
</g>
<g id="XMLID_73_">
	<path id="XMLID_79_" class="st0" d="M5.3,15.6l-4.7-0.7c1.2-8,6.9-13.7,15.9-13.7v4.6C10.5,5.8,6.2,9.9,5.3,15.6z"/>
</g>
<g id="XMLID_72_">
	<path id="XMLID_68_" class="st0" d="M14.2,33.4c-6.6-1.2-11.8-6.5-13-13.1l4.5-0.8c0.9,4.7,4.6,8.5,9.3,9.4L14.2,33.4z"/>
</g>
<g id="XMLID_84_">
	<path id="XMLID_13_" class="st1" d="M29,1v5h5v2h-5v5h-2V8h-5V6h5V1H29 M30,0h-0.5h-2H26v0.5V5h-3.5H21v0.5v2V9h1.5H26v3.5V14h1.5
		h2H30v-1.5V9h4.5H35V7.5v-2V5h-0.5H30V0.5V0L30,0z"/>
</g>
<circle id="XMLID_69_" class="st0" cx="17.1" cy="17.2" r="3.8"/>
</svg>
