<?xml version="1.0" encoding="utf-8"?>
<!-- Generator: Adobe Illustrator 21.0.2, SVG Export Plug-In . SVG Version: 6.00 Build 0)  -->
<svg version="1.1" id="Isolation_Mode" xmlns="http://www.w3.org/2000/svg" xmlns:xlink="http://www.w3.org/1999/xlink" x="0px"
	 y="0px" viewBox="0 0 130.5 150.6" width="131" height="151" style="enable-background:new 0 0 130.5 150.6;" xml:space="preserve">
<style type="text/css">
	.st0{fill:#FFFFFF;}
</style>
<path class="st0" d="M34,27.9L59.4,2.5c1.7-1.7,3.8-2.5,6-2.5h0.1c2.2,0,4.3,0.8,6,2.5l25.4,25.4c3.3,3.3,3.3,8.7,0,12
	c-1.7,1.7-3.8,2.5-6,2.5c-2.2,0-4.3-0.8-6-2.5L73.7,28.7v68.5c0,4.7-3.8,8.5-8.5,8.5c-4.7,0-8.5-3.8-8.5-8.5V29.2L46,39.9
	c-1.7,1.7-3.8,2.5-6,2.5c-2.2,0-4.3-0.8-6-2.5C30.7,36.6,30.7,31.2,34,27.9L34,27.9z M130.5,130.1L130.5,130.1
	c0,11.5-11.3,20.4-25.6,20.4H25.6c-14.4,0-25.6-9-25.6-20.4V74.9c0-11.5,11.2-20.5,25.6-20.5h10.7c1.2,0.2,2.5,0.3,3.7,0.3
	c1.3,0,2.5-0.1,3.7-0.3h0.5v16.6H25.6c-5.8,0-9,2.9-9,3.9v55.2c0,1,3.2,3.9,9,3.9h79.3c5.8,0,9-2.9,9-3.9V74.9c0-1-3.2-3.9-9-3.9
	H86.1V54.5h1.2c1.2,0.2,2.4,0.3,3.6,0.3c1.3,0,2.5-0.1,3.7-0.3h10.3c14.4,0,25.6,9,25.6,20.5V130.1z M130.5,130.1"/>
</svg>
