<?xml version="1.0" encoding="utf-8"?>
<!-- Generator: Adobe Illustrator 21.0.2, SVG Export Plug-In . SVG Version: 6.00 Build 0)  -->
<svg version="1.1" id="Layer_2" xmlns="http://www.w3.org/2000/svg" xmlns:xlink="http://www.w3.org/1999/xlink" x="0px" y="0px"
	 viewBox="0 0 40 42.3" width="40" height="42" style="enable-background:new 0 0 40 42.3;" xml:space="preserve">
<style type="text/css">
	.st0{fill:none;stroke:#00A8FF;stroke-miterlimit:10;}
	.st1{fill:none;stroke:#00A8FF;stroke-linecap:round;stroke-miterlimit:10;}
</style>
<path id="XMLID_87_" class="st0" d="M29.3,22c0-5.1-4.6-9.4-9.7-9.4S10,16.4,10,21.5V33h19.1L29.3,22z"/>
<path id="XMLID_83_" class="st0" d="M35.2,41.8H4.8V36c0-1.7,1.4-3,3-3h24.3c1.7,0,3,1.4,3,3V41.8z"/>
<line id="XMLID_88_" class="st1" x1="21" y1="7.5" x2="21" y2="0.5"/>
<line id="XMLID_93_" class="st1" x1="10.8" y1="12.9" x2="5.2" y2="7.3"/>
<line id="XMLID_94_" class="st1" x1="39.5" y1="23" x2="33.5" y2="23"/>
<line id="XMLID_92_" class="st1" x1="7.5" y1="23" x2="0.5" y2="23"/>
<line id="XMLID_96_" class="st1" x1="34.8" y1="7.6" x2="29.5" y2="12.9"/>
<path id="XMLID_90_" class="st1" d="M13.3,21.9c0-3.3,2.6-5.9,5.9-5.9"/>
<line id="XMLID_70_" class="st1" x1="34.5" y1="39" x2="9.5" y2="39"/>
<line id="XMLID_71_" class="st1" x1="34.5" y1="37" x2="22.5" y2="37"/>
</svg>
