<?xml version="1.0" encoding="utf-8"?>
<!-- Generator: Adobe Illustrator 21.0.2, SVG Export Plug-In . SVG Version: 6.00 Build 0)  -->
<svg version="1.1" id="Layer_2" xmlns="http://www.w3.org/2000/svg" xmlns:xlink="http://www.w3.org/1999/xlink" x="0px" y="0px"
	 viewBox="0 0 36.5 36.5" width="37" height="37" style="enable-background:new 0 0 36.5 36.5;" xml:space="preserve">
<style type="text/css">
	.st0{fill:#00A8FF;}
</style>
<g id="XMLID_107_">
	<path id="XMLID_30_" class="st0" d="M16.2,12.7L16.2,12.7c1.5,0,2.9,0.4,4.1,1.2c0.5,0.3,0.9,0.6,1.3,1c0.3,0.3,0.4,0.7,0.4,1.1
		c0,0.3-0.2,0.7-0.4,0.9c-0.3,0.3-0.6,0.4-1,0.4c-0.4,0-0.7-0.1-1-0.4c-0.9-0.9-2-1.4-3.3-1.4c-1.2,0-2.4,0.5-3.3,1.4l-7.8,7.8
		c-1.8,1.8-1.8,4.8,0,6.6c0.9,0.9,2,1.4,3.3,1.4s2.4-0.5,3.3-1.4l4.4-4.4c1.1,0.4,2.2,0.6,3.4,0.7l-5.7,5.7
		c-1.4,1.4-3.3,2.2-5.3,2.2C4.4,35.5,1,32.1,1,28c0-2,0.8-3.9,2.2-5.3l7.7-7.7C12.3,13.5,14.3,12.7,16.2,12.7 M16.2,11.7
		c-2.3,0-4.4,0.9-6,2.5L2.5,22C0.9,23.6,0,25.7,0,28c0,4.7,3.8,8.5,8.5,8.5c0,0,0,0,0,0c2.2,0,4.4-0.9,6-2.5l6.4-6.4
		c0.1-0.1,0.2-0.3,0.2-0.4c0-0.3-0.3-0.6-0.6-0.6c0,0,0,0,0,0h-0.2c0,0,0,0,0,0c-1.3,0-2.6-0.3-3.9-0.8c-0.1,0-0.2,0-0.2,0
		c-0.2,0-0.3,0.1-0.4,0.2l-4.6,4.6c-0.7,0.7-1.6,1.1-2.6,1.1c-0.9,0-1.9-0.4-2.6-1.1c-1.4-1.4-1.4-3.7,0-5.2l7.8-7.8
		c0.7-0.7,1.6-1.1,2.6-1.1c0.9,0,1.9,0.4,2.6,1.1c0.5,0.5,1.1,0.7,1.7,0.7c0.6,0,1.2-0.2,1.7-0.7c0.4-0.4,0.7-1,0.7-1.5
		c0-0.7-0.2-1.4-0.7-1.9c-0.4-0.4-0.9-0.8-1.4-1.2C19.5,12.2,17.9,11.7,16.2,11.7C16.2,11.7,16.2,11.7,16.2,11.7L16.2,11.7z"/>
</g>
<g id="XMLID_105_">
	<path id="XMLID_26_" class="st0" d="M28,1c2,0,3.9,0.8,5.3,2.2c2.9,2.9,2.9,7.7,0,10.6l-7.7,7.7c-0.9,0.9-2.1,1.6-3.4,1.9h0l-0.1,0
		l-0.3,0.1l-0.2,0l-0.3,0.1h-0.1c-0.1,0-0.3,0-0.4,0c0,0-0.1,0-0.1,0l0,0l0,0l-0.3,0l-0.4,0c-0.3,0-0.5,0-0.8-0.1
		c-0.2,0-0.4-0.1-0.6-0.1l-0.3-0.1c-0.1,0-0.2-0.1-0.3-0.1l-0.2-0.1c-0.1,0-0.1,0-0.2-0.1l-0.1-0.1c-0.1,0-0.1-0.1-0.2-0.1
		c-0.8-0.4-1.5-0.9-2.1-1.5c-0.3-0.3-0.4-0.7-0.4-1.1c0-0.3,0.2-0.7,0.4-0.9c0.3-0.3,0.6-0.4,1-0.4c0.4,0,0.7,0.1,1,0.4
		c0.9,0.9,2,1.4,3.3,1.4s2.4-0.5,3.3-1.4l2-2l0,0l0,0l0,0l5.7-5.7c1.8-1.8,1.8-4.8,0-6.6c-0.9-0.9-2-1.4-3.3-1.4
		c-1.2,0-2.4,0.5-3.3,1.4l-4.4,4.4c-1.1-0.4-2.2-0.7-3.3-0.7l5.7-5.7C24.1,1.8,26,1,28,1 M28,0c-2.2,0-4.4,0.8-6,2.5l-6.4,6.4
		c-0.2,0.2-0.2,0.4-0.1,0.7c0.1,0.2,0.3,0.4,0.6,0.4c0,0,0,0,0,0h0.2c0,0,0,0,0,0c1.3,0,2.6,0.3,3.9,0.8c0.1,0,0.2,0,0.2,0
		c0.2,0,0.3-0.1,0.4-0.2L25.4,6C26.1,5.3,27,4.9,28,4.9c0.9,0,1.9,0.4,2.6,1.1c1.4,1.4,1.4,3.7,0,5.2l-5.7,5.7l0,0.1l-2,2
		c-0.7,0.7-1.6,1.1-2.6,1.1s-1.9-0.4-2.6-1.1c-0.5-0.5-1.1-0.7-1.7-0.7s-1.2,0.2-1.7,0.7c-0.4,0.4-0.7,1-0.7,1.6
		c0,0.7,0.2,1.4,0.7,1.9c0.7,0.7,1.5,1.3,2.4,1.7c0.1,0.1,0.3,0.1,0.4,0.2c0.1,0.1,0.3,0.1,0.4,0.1c0.1,0,0.3,0.1,0.4,0.1l0.4,0.1
		c0.2,0.1,0.5,0.1,0.7,0.2c0.3,0,0.6,0.1,0.9,0.1h0.4h0l0.4,0c0.1,0,0.3,0,0.4,0h0.2l0.4-0.1l0.2,0l0.4-0.1h0.1
		c1.5-0.4,2.9-1.1,3.9-2.2l7.7-7.7c3.3-3.3,3.3-8.7,0-12C32.4,0.8,30.2,0,28,0L28,0z"/>
</g>
</svg>
